<?xml version="1.0" standalone="no"?>
<!DOCTYPE svg PUBLIC "-//W3C//DTD SVG 20010904//EN"
 "http://www.w3.org/TR/2001/REC-SVG-20010904/DTD/svg10.dtd">
<svg version="1.0" xmlns="http://www.w3.org/2000/svg"
 width="120.000000pt" height="120.000000pt" viewBox="0 0 120.000000 120.000000"
 preserveAspectRatio="xMidYMid meet">
<metadata>
Created by potrace 1.14, written by Peter Selinger 2001-2017
</metadata>
<g transform="translate(0.000000,120.000000) scale(0.100000,-0.100000)"
fill="#000000" stroke="none">
<path d="M0 600 l0 -600 600 0 600 0 0 600 0 600 -600 0 -600 0 0 -600z m730
466 c190 -34 303 -133 330 -288 26 -146 -31 -274 -155 -350 -84 -52 -128 -61
-325 -67 l-185 -6 -3 -138 -3 -137 -119 0 -120 0 0 500 0 500 253 0 c166 -1
277 -5 327 -14z"/>
<path d="M392 718 l3 -173 140 0 c129 1 144 3 190 25 70 36 90 67 90 145 0 49
-5 70 -21 91 -52 70 -97 83 -277 84 l-127 0 2 -172z"/>
</g>
</svg>
